{"title":"Vanishing.On.7th.Street.2010.R5.AC3.XViD-T0XiCiNK","uid":6244956,"size":1530629904,"categoryP":"video","categoryS":"movies","magnet":"?xt=urn:btih:b72cdbe6cfa0fa6fbb4da7c69613dbd83f69b3b3&amp;dn=Vanishing.On.7th.Street.2010.R5.AC3.XViD-T0XiCiNK&amp;tr=udp%3A%2F%2Ftracker.openbittorrent.com%3A80&amp;tr=udp%3A%2F%2Fopen.demonii.com%3A1337&amp;tr=udp%3A%2F%2Ftracker.coppersurfer.tk%3A6969&amp;tr=udp%3A%2F%2Fexodus.desync.com%3A6969","seeders":0,"leechers":0,"uploader":"razvanripper","files":-1,"time":1300206206,"description":"[img]http://www.leetleech.org/images/68619896657063018115.jpg[/img]\n\n::::::::::::::Enjoy:Another:Release:From:T0XiCiNK::::::::::::::\n\nFile::Vanishing.On.7th.Street.2010.R5.AC3.XViD-T0XiCiNK\n\nVideo Source:: ELEKTRI4KA\nAudio Source:: PPV (DiNKY)\nLanguage::English\nIMDB::http://www.imdb.com/title/tt1452628/\n\nWhen a massive power outage plunges the city of Detroit into total darkness, \na disparate group of individuals find themselves alone. The entire city's population \nhas vanished into thin air, leaving behind heaps of empty clothing, abandoned cars \nand lengthening shadows. Soon the daylight begins to disappear completely, and as \nthe survivors gather in an abandoned tavern, they realize the darkness is out to \nget them, and only their rapidly diminishing light sources can keep them safe.\n\nSpecs::\n\nGeneral\n\n\nFormat                           : AVI\nFormat/Info                      : Audio Video Interleave\nFile size                        : 1.41 GiB\nDuration                         : 1h 22mn\nOverall bit rate                 : 2 453 Kbps\nWriting application              : VirtualDubMod 1.5.10.2 (build 2542/release)\nWriting library                  : VirtualDubMod build 2542/release\n\nVideo\nID                               : 0\nFormat                           : MPEG-4 Visual\nFormat profile                   : Advanced Simple@L5\nFormat settings, BVOP            : Yes\nFormat settings, QPel            : No\nFormat settings, GMC             : No warppoints\nFormat settings, Matrix          : Default (H.263)\nCodec ID                         : XVID\nCodec ID/Hint                    : XviD\nDuration                         : 1h 22mn\nBit rate                         : 2 251 Kbps\nWidth                            : 720 pixels\nHeight                           : 384 pixels\nDisplay aspect ratio             : 1.875\nFrame rate                       : 25.000 fps\nColor space                      : YUV\nChroma subsampling               : 4:2:0\nBit depth                        : 8 bits\nScan type                        : Progressive\nBits/(Pixel*Frame)               : 0.326\nStream size                      : 1.29 GiB (92%)\nWriting library                  : XviD 1.2.1 (UTC 2008-12-04)\n\nAudio\nID                               : 1\nFormat                           : AC-3\nFormat/Info                      : Audio Coding 3\nMode extension                   : CM (complete main)\nCodec ID                         : 2000\nDuration                         : 1h 22mn\nBit rate mode                    : Constant\nBit rate                         : 192 Kbps\nChannel(s)                       : 2 channels\nChannel positions                : Front: L R\nSampling rate                    : 48.0 KHz\nBit depth                        : 16 bits\nStream size                      : 113 MiB (8%)\nAlignment                        : Split accross interleaves\nInterleave, duration             : 40 ms (1.00 video frame)\nInterleave, preload duration     : 500 ms\n\n\n\nNOTES:: Presenting first r5 of Vanishing On 7th Street, using audio from PPV (Studio) along with \nstudio russian surrounds. Enjoy.\n\n\n::Why Complain? Whats Free Is Free::\n\n::We are always looking for friends with unreleased DVD's, Screeners, R5's, Audio, Cams, Silvers,\n...and any other good sources you may have to offer - \n..contact us: &lt;a class=&quot;__cf_email__&quot; href=&quot;/cdn-cgi/l/email-protection&quot; data-cfemail=&quot;1763276f7e7465727b7276647264577f62647f7a767e7b3974787a&quot;&gt;[email&amp;#160;protected]&lt;/a&gt;&lt;script cf-hash='f9e31' type=&quot;text/javascript&quot;&gt;\n/* &lt;![CDATA[ */!function(){try{var t=&quot;currentScript&quot;in document?document.currentScript:function(){for(var t=document.getElementsByTagName(&quot;script&quot;),e=t.length;e--;)if(t[e].getAttribute(&quot;cf-hash&quot;))return t[e]}();if(t&amp;&amp;t.previousSibling){var e,r,n,i,c=t.previousSibling,a=c.getAttribute(&quot;data-cfemail&quot;);if(a){for(e=&quot;&quot;,r=parseInt(a.substr(0,2),16),n=2;a.length-n;n+=2)i=parseInt(a.substr(n,2),16)^r,e+=String.fromCharCode(i);e=document.createTextNode(e),c.parentNode.replaceChild(e,c)}}}catch(u){}}();/* ]]&gt; */&lt;/script&gt; or &lt;a class=&quot;__cf_email__&quot; href=&quot;/cdn-cgi/l/email-protection&quot; data-cfemail=&quot;66020f010f12070a480f080d260a0f10034805090b&quot;&gt;[email&amp;#160;protected]&lt;/a&gt;&lt;script cf-hash='f9e31' type=&quot;text/javascript&quot;&gt;\n/* &lt;![CDATA[ */!function(){try{var t=&quot;currentScript&quot;in document?document.currentScript:function(){for(var t=document.getElementsByTagName(&quot;script&quot;),e=t.length;e--;)if(t[e].getAttribute(&quot;cf-hash&quot;))return t[e]}();if(t&amp;&amp;t.previousSibling){var e,r,n,i,c=t.previousSibling,a=c.getAttribute(&quot;data-cfemail&quot;);if(a){for(e=&quot;&quot;,r=parseInt(a.substr(0,2),16),n=2;a.length-n;n+=2)i=parseInt(a.substr(n,2),16)^r,e+=String.fromCharCode(i);e=document.createTextNode(e),c.parentNode.replaceChild(e,c)}}}catch(u){}}();/* ]]&gt; */&lt;/script&gt;\n\n::::::::::::::::::::::::::::::::::::   Respect To   :::::::::::::::::::::::::::::::::::::\n::IMAGiNE,FLAWL3SS,Hive-CM8,Tranz,Vik,OneTwo,Joey,bob,Unevano,SANTi &amp; our friends on utn and PA::\n                       &quot;and to all of you who support us, Thank-You&quot;\n\n\nwww.leetleech.org/images/88086137075925429030.png\nwww.leetleech.org/images/65377368375929884614.png\nwww.leetleech.org/images/80169498010646624410.png\nwww.leetleech.org/images/69636017451518504542.png\nwww.leetleech.org/images/99074780473948289601.png\n \n \n\n\n","torrent":{"xt":"urn:btih:b72cdbe6cfa0fa6fbb4da7c69613dbd83f69b3b3","amp;dn":"Vanishing.On.7th.Street.2010.R5.AC3.XViD-T0XiCiNK","amp;tr":["udp%3A%2F%2Ftracker.openbittorrent.com%3A80","udp%3A%2F%2Fopen.demonii.com%3A1337","udp%3A%2F%2Ftracker.coppersurfer.tk%3A6969","udp%3A%2F%2Fexodus.desync.com%3A6969"],"infoHash":"b72cdbe6cfa0fa6fbb4da7c69613dbd83f69b3b3","infoHashBuffer":{"type":"Buffer","data":[183,44,219,230,207,160,250,111,187,77,167,198,150,19,219,216,63,105,179,179]},"announce":[],"urlList":[]}}